#!OML:ASF H:\Pregnant\Project 1\Capture day 1\Session 1\femalepreg.ASF
:FULLY-SPECIFIED
:DEGREES
685
root 5.73001 15.8762 -17.0326 -154.837 169.78 -184.289
lowerback -23.1528 -2.63625 -1.54757
upperback -4.03178 -3.37203 3.27581
thorax 8.76342 -1.69398 3.47456
lowerneck -16.0964 -0.60833 0.322548
upperneck 33.6643 -3.52992 7.02654
head 14.4221 -0.492119 2.22471
rclavicle -2.83066e-014 8.87077e-015
rhumerus -30.9124 11.2204 -84.1451
rradius 29.2919
rwrist 3.57677
rhand -10.3318 -14.8721
rfingers 7.12502
rthumb 15.6641 -44.258
lclavicle -2.83066e-014 8.87077e-015
lhumerus -24.1903 -16.7138 86.7428
lradius 48.9779
lwrist 34.455
lhand -21.9721 -8.74635
lfingers 7.12502
lthumb 4.4357 21.1872
rfemur -32.0501 35.7066 20.3531
rtibia 37.7549
rfoot 25.0044 35.8096
rtoes 59.9347
lfemur -52.0685 -18.8848 -9.04945
ltibia 32.7632
lfoot -6.54537 -8.30772
ltoes -4.46381
686
root 5.74681 15.8755 -16.9693 -154.786 170.21 -184.083
lowerback -23.1084 -2.44508 -1.99021
upperback -3.99504 -2.9865 2.99181
thorax 8.75576 -1.51855 3.53456
lowerneck -16.1309 -0.726277 0.319128
upperneck 33.5005 -3.7499 7.19726
head 14.3732 -0.565654 2.25343
rclavicle 1.50269e-014 -3.72721e-015
rhumerus -31.11 13.6341 -85.1192
rradius 30.5991
rwrist 4.28836
rhand -11.1417 -13.5894
rfingers 7.12502
rthumb 14.884 -43.0347
lclavicle 1.50269e-014 -3.72721e-015
lhumerus -24.6416 -17.659 87.0966
lradius 48.552
lwrist 35.0953
lhand -22.1779 -8.58291
lfingers 7.12502
lthumb 4.23694 21.3547
rfemur -31.7218 34.652 20.4856
rtibia 37.9745
rfoot 24.4592 35.5177
rtoes 59.2262
lfemur -51.6234 -18.603 -9.62299
ltibia 32.7422
lfoot -6.86006 -8.36083
ltoes -3.88411
687
root 5.76264 15.8739 -16.9066 -154.737 170.657 -183.838
lowerback -23.048 -2.26033 -2.4809
upperback -3.95497 -2.59678 2.69338
thorax 8.74208 -1.34234 3.60748
lowerneck -16.1678 -0.845355 0.317343
upperneck 33.3334 -3.97187 7.36974
head 14.3242 -0.639923 2.282
rclavicle -2.79417e-014 -2.09718e-014
rhumerus -31.2797 15.8984 -86.003
rradius 31.8911
rwrist 4.70107
rhand -12.0893 -12.6349
rfingers 7.12502
rthumb 13.971 -42.1455
lclavicle -2.79417e-014 -2.09718e-014
lhumerus -25.1119 -18.5856 87.4384
lradius 48.1115
lwrist 35.678
lhand -22.3419 -8.31659
lfingers 7.12502
lthumb 4.07861 21.6241
rfemur -31.4523 33.4724 20.5927
rtibia 38.3144
rfoot 23.9375 35.1927
rtoes 58.459
lfemur -51.1569 -18.3161 -10.2439
ltibia 32.6874
lfoot -7.14432 -8.43573
ltoes -3.24289
688
root 5.77729 15.8713 -16.8446 -154.699 171.118 -183.554
lowerback -22.9467 -2.08132 -3.0129
upperback -3.921 -2.20385 2.37419
thorax 8.69771 -1.16496 3.68219
lowerneck -16.2001 -0.963069 0.322577
upperneck 33.1693 -4.19649 7.55047
head 14.2768 -0.713633 2.31224
rclavicle -4.99446e-015 -3.77691e-015
rhumerus -31.4312 18.0059 -86.8092
rradius 33.1695
rwrist 4.80871
rhand -12.9799 -12.0586
rfingers 7.12502
rthumb 13.1125 -41.6264
lclavicle -4.99446e-015 -3.77691e-015
lhumerus -25.6185 -19.4959 87.7597
lradius 47.6592
lwrist 36.2024
lhand -22.4721 -7.97287
lfingers 7.12502
lthumb 3.95291 21.9702
rfemur -31.2436 32.1644 20.6781
rtibia 38.7875
rfoot 23.5886 34.8251
rtoes 57.7377
lfemur -50.6613 -18.0224 -10.916
ltibia 32.5991
lfoot -7.39475 -8.54515
ltoes -2.50147
689
root 5.79063 15.8676 -16.7838 -154.67 171.59 -183.234
lowerback -22.8173 -1.91094 -3.59482
upperback -3.88328 -1.81121 2.04444
thorax 8.64077 -0.988684 3.77314
lowerneck -16.2516 -1.07834 0.335789
upperneck 33.0142 -4.41778 7.72247
head 14.2379 -0.785717 2.33829
rclavicle 4.64659e-015 -6.16232e-015
rhumerus -31.5421 19.9677 -87.5228
rradius 34.4151
rwrist 4.70332
rhand -13.8581 -11.7461
rfingers 7.12502
rthumb 12.2659 -41.3664
lclavicle 4.64659e-015 -6.16232e-015
lhumerus -26.1374 -20.3744 88.0659
lradius 47.1888
lwrist 36.6584
lhand -22.5798 -7.6246
lfingers 7.12502
lthumb 3.84886 22.3204
rfemur -31.1104 30.7329 20.7397
rtibia 39.4058
rfoot 23.4451 34.4459
rtoes 57.0893
lfemur -50.1403 -17.7087 -11.6427
ltibia 32.4782
lfoot -7.61172 -8.7078
ltoes -1.65232
690
root 5.80306 15.863 -16.7241 -154.652 172.068 -182.888
lowerback -22.6523 -1.74245 -4.20425
upperback -3.84927 -1.4164 1.70257
thorax 8.55747 -0.811053 3.86601
lowerneck -16.2899 -1.19682 0.34152
upperneck 32.851 -4.64386 7.90655
head 14.194 -0.85995 2.36934
rclavicle -8.34896e-015 5.96354e-015
rhumerus -31.6203 21.7705 -88.1474
rradius 35.6421
rwrist 4.37522
rhand -14.5799 -11.7521
rfingers 7.12502
rthumb 11.5699 -41.4127
lclavicle -8.34896e-015 5.96354e-015
lhumerus -26.682 -21.2223 88.355
lradius 46.7015
lwrist 37.0376
lhand -22.6461 -7.24322
lfingers 7.12502
lthumb 3.78489 22.7029
rfemur -31.0547 29.1724 20.7884
rtibia 40.1651
rfoot 23.4788 34.0676
rtoes 56.4529
lfemur -49.5979 -17.3718 -12.4126
ltibia 32.3286
lfoot -7.79925 -8.92069
ltoes -0.710264
691
root 5.8145 15.8573 -16.6658 -154.639 172.563 -182.521
lowerback -22.4648 -1.56865 -4.83716
upperback -3.81164 -1.0113 1.34749
thorax 8.46155 -0.628254 3.95902
lowerneck -16.3405 -1.31888 0.342501
upperneck 32.6805 -4.87478 8.09633
head 14.151 -0.936284 2.40235
rclavicle 1.46604e-014 1.39149e-014
rhumerus -31.6474 23.3951 -88.6734
rradius 36.8366
rwrist 3.90696
rhand -15.1774 -11.9765
rfingers 7.12502
rthumb 10.9937 -41.6687
lclavicle 1.46604e-014 1.39149e-014
lhumerus -27.2196 -22.0424 88.6205
lradius 46.1798
lwrist 37.3398
lhand -22.6832 -7.12166
lfingers 7.12502
lthumb 3.74904 22.8251
rfemur -31.0953 27.5164 20.8104
rtibia 41.0576
rfoot 23.5681 33.6829
rtoes 55.7243
lfemur -49.0474 -17.0016 -13.2193
ltibia 32.1557
lfoot -7.96426 -9.17372
ltoes 0.283469
692
root 5.82558 15.8513 -16.6085 -154.641 173.063 -182.152
lowerback -22.2543 -1.39051 -5.46792
upperback -3.76939 -0.60511 0.991319
thorax 8.35451 -0.444118 4.04757
lowerneck -16.4004 -1.44113 0.341272
upperneck 32.5115 -5.1012 8.27499
head 14.1109 -1.01248 2.43183
rclavicle 5.51627e-015 -3.18055e-015
rhumerus -31.6292 24.8776 -89.1035
rradius 38.0007
rwrist 3.30688
rhand -15.6836 -12.3974
rfingers 7.12502
rthumb 10.5054 -42.1149
lclavicle 5.51627e-015 -3.18055e-015
lhumerus -27.7526 -22.8044 88.8652
lradius 45.6212
lwrist 37.5583
lhand -22.6446 -6.98722
lfingers 7.12502
lthumb 3.78635 22.9589
rfemur -31.2072 25.7976 20.8269
rtibia 42.0606
rfoot 23.6044 33.2616
rtoes 54.8321
lfemur -48.479 -16.6051 -14.041
ltibia 31.9643
lfoot -8.11974 -9.4517
ltoes 1.2596
693
root 5.83688 15.8456 -16.5524 -154.642 173.577 -181.801
lowerback -22.0349 -1.20035 -6.06998
upperback -3.73727 -0.194469 0.63993
thorax 8.22701 -0.255616 4.12342
lowerneck -16.4329 -1.56387 0.321315
upperneck 32.3309 -5.31872 8.45186
head 14.0599 -1.08874 2.46476
rclavicle 1.22253e-014 2.94201e-014
rhumerus -31.5783 26.2229 -89.4419
rradius 39.1264
rwrist 2.60283
rhand -16.119 -12.9559
rfingers 7.12502
rthumb 10.0854 -42.6943
lclavicle 1.22253e-014 2.94201e-014
lhumerus -28.3051 -23.4994 89.0975
lradius 45.036
lwrist 37.6959
lhand -22.585 -7.00306
lfingers 7.12502
lthumb 3.84387 22.942
rfemur -31.4121 24.0438 20.8343
rtibia 43.1542
rfoot 23.558 32.7747
rtoes 53.7414
lfemur -47.9209 -16.1798 -14.8491
ltibia 31.7606
lfoot -8.2706 -9.72625
ltoes 2.16151
